PathFileType	4	(X/Y/Z)	/Users/itak/Documents/Research/Walk-IL/dataset/trc/00488_00167.trc
DataRate	CameraRate	NumFrames	NumMarkers	Units	OrigDataRate	OrigDataStartFrame	OrigNumFrames
100.000000	100.000000	4	53	mm	100.000000	341	546
Frame#	Time	RPSI			LPSI			L3			STRN			T10			C7			CLAV			RBAK			LBAK			LSHO			LUPA			LAEL			LAOL			LWTS			LWPS			LFRA			LIFD			LHPS			LHTS			RSHO			RUPA			RAEL			RAOL			RWTS			RWPS			RFRA			RIFD			RHTS			RHPS			RBHD			LFHD			RFHD			LBHD			LHIP			RHIP			RASI			LASI			LKNE			LTHI			LANK			LTIP			LTOE			LMT1			LMT5			LHEE			RKNE			RTHI			RANK			RTIP			RTOE			RMT1			RMT5			RHEE			
		X1	Y1	Z1	X2	Y2	Z2	X3	Y3	Z3	X4	Y4	Z4	X5	Y5	Z5	X6	Y6	Z6	X7	Y7	Z7	X8	Y8	Z8	X9	Y9	Z9	X10	Y10	Z10	X11	Y11	Z11	X12	Y12	Z12	X13	Y13	Z13	X14	Y14	Z14	X15	Y15	Z15	X16	Y16	Z16	X17	Y17	Z17	X18	Y18	Z18	X19	Y19	Z19	X20	Y20	Z20	X21	Y21	Z21	X22	Y22	Z22	X23	Y23	Z23	X24	Y24	Z24	X25	Y25	Z25	X26	Y26	Z26	X27	Y27	Z27	X28	Y28	Z28	X29	Y29	Z29	X30	Y30	Z30	X31	Y31	Z31	X32	Y32	Z32	X33	Y33	Z33	X34	Y34	Z34	X35	Y35	Z35	X36	Y36	Z36	X37	Y37	Z37	X38	Y38	Z38	X39	Y39	Z39	X40	Y40	Z40	X41	Y41	Z41	X42	Y42	Z42	X43	Y43	Z43	X44	Y44	Z44	X45	Y45	Z45	X46	Y46	Z46	X47	Y47	Z47	X48	Y48	Z48	X49	Y49	Z49	X50	Y50	Z50	X51	Y51	Z51	X52	Y52	Z52	X53	Y53	Z53	

342	3.41	148.7527465820312	931.6478271484375	354.4373474121094	17.72002410888672	931.3247680664062	294.1924133300781	99.81142425537109	1033.851928710938	314.4450073242188	191.0419311523438	1212.68896484375	47.61692428588867	90.20816802978516	1158.553955078125	321.1260681152344	131.7479705810547	1423.861328125	246.8955383300781	178.0881500244141	1327.154418945312	75.03192138671875	194.3103790283203	1306.427978515625	345.0657348632812	25.65748977661133	1377.5615234375	247.0332336425781	-14.47119331359863	1394.720825195312	123.3886795043945	-115.3638534545898	1279.412353515625	104.7888870239258	-146.9968109130859	1063.082641601562	85.27028656005859	-113.3920593261719	1054.122802734375	183.3516998291016	-96.78983306884766	849.5131225585938	43.31542587280273	-164.5750579833984	844.5528564453125	72.35038757324219	-155.2998504638672	974.3796997070312	70.46067047119141	-119.833137512207	687.9381103515625	56.51402282714844	-170.4921569824219	766.8834838867188	72.26819610595703	-109.1731338500977	763.3775634765625	32.85871124267578	301.8513488769531	1386.210327148438	241.3240051269531	364.8671569824219	1330.572509765625	290.0999145507812	434.1006774902344	1053.067016601562	338.9756774902344	378.890869140625	1034.652221679688	375.44091796875	436.4942321777344	845.0056762695312	233.0570831298828	468.9056396484375	833.7607421875	314.890869140625	447.8907775878906	994.9895629882812	340.62646484375	454.8769226074219	689.808837890625	235.5938415527344	459.7878723144531	749.2741088867188	223.6652069091797	477.4908752441406	746.3372802734375	298.7989501953125	247.0518341064453	1620.754516601562	133.3093109130859	108.8522262573242	1590.074096679688	-17.00507926940918	238.0185699462891	1600.622924804688	-2.708564519882202	69.68546295166016	1615.011596679688	128.6795654296875	-32.80142974853516	817.24462890625	124.5089416503906	330.9958190917969	837.59033203125	292.8437805175781	303.1322021484375	880.98486328125	176.6112976074219	74.57582855224609	854.8131103515625	66.44955444335938	49.30541610717773	406.0152282714844	211.7380065917969	30.6951732635498	549.7544555664062	148.1322021484375	-28.51271057128906	35.60043334960938	397.9259338378906	30.38302993774414	257.5971984863281	260.8750915527344	212.9417572021484	37.50968170166016	351.4091491699219	152.2292938232422	52.9509391784668	403.5083312988281	98.048828125	39.55586624145508	305.3403625488281	-31.09821128845215	55.61212539672852	473.5409240722656	394.3501281738281	474.7380676269531	144.7113647460938	379.14404296875	721.6846313476562	226.4035491943359	477.3619384765625	43.38977432250977	44.43202972412109	435.7918395996094	348.2467041015625	103.473991394043	460.8397216796875	132.6779632568359	-151.3789672851562	414.37353515625	111.1623153686523	-100.7832489013672	512.6180419921875	81.46492004394531	-76.88854217529297	422.5781860351562	24.51076126098633	98.54238128662109	
343	3.42	155.0708465576172	930.1748046875	349.1831970214844	23.42510795593262	930.6126708984375	290.2576599121094	105.8449172973633	1032.47412109375	309.7554321289062	194.9666595458984	1211.22412109375	41.78074645996094	96.72597503662109	1157.287231445312	316.3348083496094	137.8413848876953	1422.515380859375	241.5914306640625	182.3841552734375	1325.7060546875	69.30284881591797	201.2442321777344	1305.036743164062	339.19580078125	31.62962532043457	1376.37841796875	242.9768829345703	-9.680511474609375	1393.437744140625	119.5907974243164	-111.0969467163086	1278.2802734375	102.6676940917969	-144.39208984375	1062.55615234375	84.96244812011719	-108.6357727050781	1053.905395507812	182.3823089599609	-99.38536071777344	847.5460815429688	44.4888801574707	-166.5767669677734	844.5325317382812	75.45187377929688	-154.6254730224609	973.9577026367188	71.46945953369141	-126.1611557006836	686.71875	60.45594787597656	-174.3635101318359	767.1174926757812	76.52547454833984	-114.2120056152344	761.6776123046875	35.49468612670898	307.8380432128906	1384.673950195312	234.4097747802734	371.1623229980469	1328.802001953125	282.5334167480469	440.3722229003906	1050.859375	329.9988403320312	385.5803527832031	1032.216918945312	366.8573608398438	440.5192260742188	844.1344604492188	221.5305328369141	474.1495666503906	831.6585083007812	302.6640625	453.9636840820312	992.726806640625	330.7924499511719	457.8927001953125	688.82763671875	221.6845855712891	462.9786071777344	748.42236328125	210.4910583496094	481.8724365234375	744.3471069335938	285.2660827636719	252.1444854736328	1619.386474609375	127.3619995117188	112.8905487060547	1588.831787109375	-22.02988624572754	242.2152862548828	1599.299926757812	-8.613344192504883	74.76657104492188	1613.766235351562	123.8799743652344	-29.2829704284668	816.944091796875	121.1431503295898	336.3868103027344	835.64404296875	285.9910888671875	307.7635192871094	879.3573608398438	169.9753723144531	77.89704895019531	853.6526489257812	61.98219299316406	49.732666015625	405.7962036132812	210.2124328613281	32.0825309753418	549.3088989257812	145.7415618896484	-27.86199569702148	36.09429550170898	398.92431640625	30.06910705566406	257.5515747070312	260.0187683105469	213.1716461181641	37.45270156860352	350.787841796875	152.6212615966797	53.25627517700195	403.1175231933594	97.90066528320312	39.50686645507812	305.3455505371094	-29.8267765045166	56.92122268676758	474.3425903320312	397.0774536132812	473.1614990234375	136.1384429931641	383.6354064941406	719.7338256835938	219.0983123779297	478.729736328125	43.55086517333984	25.54377746582031	438.17724609375	347.4874877929688	92.11640930175781	463.0484008789062	137.986328125	-167.9477996826172	416.4896850585938	115.2877731323242	-118.0549240112305	514.5753784179688	84.61235809326172	-94.65909576416016	423.6037902832031	23.57426261901855	78.96258544921875	
344	3.43	161.5360717773438	928.6630249023438	343.7395935058594	29.26275062561035	929.9134521484375	286.2388000488281	111.9102783203125	1031.138916015625	304.9442138671875	199.0109405517578	1209.752075195312	35.80460357666016	103.2643814086914	1156.030029296875	311.2833557128906	144.0082702636719	1421.18310546875	236.0702056884766	186.7979736328125	1324.267456054688	63.40639114379883	208.2151641845703	1303.662353515625	333.1304321289062	37.69423294067383	1375.220458984375	238.6137390136719	-4.752324104309082	1392.179931640625	115.5053176879883	-106.6598663330078	1277.175415039062	100.2053909301758	-141.5509185791016	1062.074829101562	84.36177062988281	-103.7647933959961	1053.733032226562	181.1116638183594	-101.5222396850586	845.7926025390625	45.58428573608398	-168.0886535644531	844.6761474609375	78.30778503417969	-153.6126861572266	973.6205444335938	72.208984375	-131.8460388183594	685.8295288085938	64.38823699951172	-177.6637420654297	767.5861206054688	80.54621887207031	-118.7302932739258	760.1641235351562	38.08987808227539	313.8968811035156	1383.1318359375	227.3365325927734	377.5126647949219	1327.037109375	274.8182983398438	446.6723937988281	1048.673095703125	320.9477233886719	392.3077697753906	1029.817504882812	358.194091796875	444.4765014648438	843.306884765625	210.0083618164062	479.3449401855469	829.6181640625	290.4226989746094	460.0332336425781	990.492431640625	320.8970336914062	460.8718566894531	687.942626953125	207.8219757080078	466.1215515136719	747.6484375	197.3526611328125	486.2183532714844	742.447509765625	271.7483520507812	257.358642578125	1618.021362304688	121.254753112793	117.0657653808594	1587.619995117188	-27.22573280334473	246.5404510498047	1598.01318359375	-14.67821884155273	79.97881317138672	1612.51611328125	118.91357421875	-25.75617218017578	816.7257080078125	117.7826385498047	341.9147338867188	833.7399291992188	278.7589111328125	312.4096069335938	877.7681274414062	163.0686798095703	81.19824981689453	852.54638671875	57.39923477172852	50.11923980712891	405.6398620605469	208.595703125	33.42773056030273	548.9362182617188	143.2682647705078	-27.20172882080078	36.69080352783203	399.8361511230469	29.75736427307129	257.6189575195312	259.09423828125	213.3853454589844	37.39571762084961	350.1434020996094	153.0167236328125	53.61361312866211	402.7043151855469	97.69143676757812	39.42546844482422	305.2802429199219	-28.55599975585938	58.37479019165039	475.0648193359375	399.792724609375	471.5561828613281	127.3329467773438	388.2830810546875	717.91015625	211.5491790771484	479.6279907226562	43.41279220581055	8.296511650085449	440.4069519042969	346.4820251464844	81.07156372070312	465.105224609375	142.2882690429688	-183.131103515625	418.3716735839844	118.5989837646484	-133.9540100097656	516.2578735351562	87.04163360595703	-110.7913436889648	424.0155944824219	22.54329299926758	60.99015045166016	
345	3.44	168.1696014404297	927.1253662109375	338.0885925292969	35.27133178710938	929.2354125976562	282.1127014160156	118.036994934082	1029.851440429688	299.9921875	203.1607818603516	1208.283447265625	29.68569374084473	109.8317031860352	1154.783935546875	305.9664916992188	150.2491455078125	1419.870239257812	230.3400726318359	191.3294525146484	1322.847290039062	57.34268569946289	215.2290649414062	1302.306396484375	326.8731384277344	43.86608123779297	1374.083618164062	233.9290313720703	0.3169999420642853	1390.958374023438	111.1411514282227	-102.0574569702148	1276.1201171875	97.39784240722656	-138.4899444580078	1061.646728515625	83.46109008789062	-98.81963348388672	1053.613525390625	179.5526275634766	-103.166748046875	844.240478515625	46.57843780517578	-169.0882873535156	844.964599609375	80.8597412109375	-152.2587738037109	973.3666381835938	72.65213775634766	-136.8091735839844	685.2478637695312	68.27527618408203	-180.3544006347656	768.2569580078125	84.27900695800781	-122.6721420288086	758.7584228515625	40.65293502807617	320.0277099609375	1381.593994140625	220.1099395751953	383.9266052246094	1325.28955078125	266.9656982421875	452.9950256347656	1046.515869140625	311.8137817382812	399.0621948242188	1027.466552734375	349.4717102050781	448.3770141601562	842.5172729492188	198.5105285644531	484.4978942871094	827.6484985351562	278.1849365234375	466.1026306152344	988.294189453125	310.9389038085938	463.8577880859375	687.148193359375	194.047119140625	469.2425537109375	746.9465942382812	184.2809295654297	490.5457153320312	740.6461791992188	258.2766418457031	262.6939086914062	1616.66064453125	114.9858245849609	121.3792037963867	1586.443237304688	-32.59361267089844	250.9915313720703	1596.761596679688	-20.9018726348877	85.32105255126953	1611.264892578125	113.781120300293	-22.20807075500488	816.5992431640625	114.4232559204102	347.5574035644531	831.8617553710938	271.1542358398438	317.0704345703125	876.2090454101562	155.8631134033203	84.46756744384766	851.5052490234375	52.69051361083984	50.50030136108398	405.5520629882812	206.8345336914062	34.74562072753906	548.6444702148438	140.6828308105469	-26.57351112365723	37.39330291748047	400.6218872070312	29.48172760009766	257.8150329589844	258.0710754394531	213.5623016357422	37.34645080566406	349.4891662597656	153.3953552246094	54.04719161987305	402.2556762695312	97.41563415527344	39.30540466308594	305.1305847167969	-27.33778381347656	59.98249053955078	475.65576171875	402.4906311035156	469.9253234863281	118.2579116821289	393.1309204101562	716.2421264648438	203.8522033691406	480.0795288085938	42.90659332275391	-7.239326477050781	442.4862670898438	345.1978759765625	70.29616546630859	466.9513244628906	145.4058074951172	-196.9641571044922	419.9773254394531	120.9180221557617	-148.4754486083984	517.6368408203125	88.62898254394531	-125.2694931030273	423.8960876464844	21.40421867370605	44.76694488525391	
